<svg width="212" height="47" viewBox="0 0 212 47" fill="none" xmlns="http://www.w3.org/2000/svg">
<mask id="path-1-outside-1_2005_3417" maskUnits="userSpaceOnUse" x="52" y="8" width="159" height="29" fill="black">
<rect fill="white" x="52" y="8" width="159" height="29"/>
<path d="M63.578 31.554V35.43H53.166V9.856H58.144V31.554H63.578ZM78.3849 31.554V35.43H68.1249V9.78H78.2329V13.77H73.1029V19.926H77.3589V23.764H73.1029V31.554H78.3849ZM101.248 9.856V35.43H96.8399V18.482H95.4719L92.9639 35.43H91.6719L89.1259 18.482H87.7959V35.43H83.3879V9.856H89.4299L91.5959 22.738H93.1919L95.1299 9.856H101.248ZM117.513 31.554V35.43H107.253V9.78H117.361V13.77H112.231V19.926H116.487V23.764H112.231V31.554H117.513ZM131.674 9.856L134.98 13.998L126.088 31.554H133.536V35.43H123.542L120.464 31.25L129.47 13.77H122.744V9.856H131.674ZM144.278 9.856V35.43H139.3V9.856H144.278ZM160.959 9.856V13.77H157.539V35.43H152.637V13.77H149.179V9.856H160.959ZM170.408 31.402V35.43H165.506V31.402H170.408ZM189.955 25.626V35.43H185.205V24.752H181.557V35.43H176.541V9.856H186.193L189.955 13.39V19.85L186.611 22.776L189.955 25.626ZM181.557 20.838H185.205V13.77H181.557V20.838ZM209.632 9.856V31.858L205.984 35.43H199.638L195.952 31.896V9.856H200.93V31.554H204.654V9.856H209.632Z"/>
</mask>
<path d="M63.578 31.554V35.43H53.166V9.856H58.144V31.554H63.578ZM78.3849 31.554V35.43H68.1249V9.78H78.2329V13.77H73.1029V19.926H77.3589V23.764H73.1029V31.554H78.3849ZM101.248 9.856V35.43H96.8399V18.482H95.4719L92.9639 35.43H91.6719L89.1259 18.482H87.7959V35.43H83.3879V9.856H89.4299L91.5959 22.738H93.1919L95.1299 9.856H101.248ZM117.513 31.554V35.43H107.253V9.78H117.361V13.77H112.231V19.926H116.487V23.764H112.231V31.554H117.513ZM131.674 9.856L134.98 13.998L126.088 31.554H133.536V35.43H123.542L120.464 31.25L129.47 13.77H122.744V9.856H131.674ZM144.278 9.856V35.43H139.3V9.856H144.278ZM160.959 9.856V13.77H157.539V35.43H152.637V13.77H149.179V9.856H160.959ZM170.408 31.402V35.43H165.506V31.402H170.408ZM189.955 25.626V35.43H185.205V24.752H181.557V35.43H176.541V9.856H186.193L189.955 13.39V19.85L186.611 22.776L189.955 25.626ZM181.557 20.838H185.205V13.77H181.557V20.838ZM209.632 9.856V31.858L205.984 35.43H199.638L195.952 31.896V9.856H200.93V31.554H204.654V9.856H209.632Z" fill="#744746"/>
<path d="M63.578 31.554H64.578V30.554H63.578V31.554ZM63.578 35.43V36.43H64.578V35.43H63.578ZM53.166 35.43H52.166V36.43H53.166V35.43ZM53.166 9.856V8.856H52.166V9.856H53.166ZM58.144 9.856H59.144V8.856H58.144V9.856ZM58.144 31.554H57.144V32.554H58.144V31.554ZM62.578 31.554V35.43H64.578V31.554H62.578ZM63.578 34.43H53.166V36.43H63.578V34.43ZM54.166 35.43V9.856H52.166V35.43H54.166ZM53.166 10.856H58.144V8.856H53.166V10.856ZM57.144 9.856V31.554H59.144V9.856H57.144ZM58.144 32.554H63.578V30.554H58.144V32.554ZM78.3849 31.554H79.3849V30.554H78.3849V31.554ZM78.3849 35.43V36.43H79.3849V35.43H78.3849ZM68.1249 35.43H67.1249V36.43H68.1249V35.43ZM68.1249 9.78V8.78H67.1249V9.78H68.1249ZM78.2329 9.78H79.2329V8.78H78.2329V9.78ZM78.2329 13.77V14.77H79.2329V13.77H78.2329ZM73.1029 13.77V12.77H72.1029V13.77H73.1029ZM73.1029 19.926H72.1029V20.926H73.1029V19.926ZM77.3589 19.926H78.3589V18.926H77.3589V19.926ZM77.3589 23.764V24.764H78.3589V23.764H77.3589ZM73.1029 23.764V22.764H72.1029V23.764H73.1029ZM73.1029 31.554H72.1029V32.554H73.1029V31.554ZM77.3849 31.554V35.43H79.3849V31.554H77.3849ZM78.3849 34.43H68.1249V36.43H78.3849V34.43ZM69.1249 35.43V9.78H67.1249V35.43H69.1249ZM68.1249 10.78H78.2329V8.78H68.1249V10.78ZM77.2329 9.78V13.77H79.2329V9.78H77.2329ZM78.2329 12.77H73.1029V14.77H78.2329V12.77ZM72.1029 13.77V19.926H74.1029V13.77H72.1029ZM73.1029 20.926H77.3589V18.926H73.1029V20.926ZM76.3589 19.926V23.764H78.3589V19.926H76.3589ZM77.3589 22.764H73.1029V24.764H77.3589V22.764ZM72.1029 23.764V31.554H74.1029V23.764H72.1029ZM73.1029 32.554H78.3849V30.554H73.1029V32.554ZM101.248 9.856H102.248V8.856H101.248V9.856ZM101.248 35.43V36.43H102.248V35.43H101.248ZM96.8399 35.43H95.8399V36.43H96.8399V35.43ZM96.8399 18.482H97.8399V17.482H96.8399V18.482ZM95.4719 18.482V17.482H94.609L94.4826 18.3356L95.4719 18.482ZM92.9639 35.43V36.43H93.8268L93.9531 35.5764L92.9639 35.43ZM91.6719 35.43L90.683 35.5786L90.8109 36.43H91.6719V35.43ZM89.1259 18.482L90.1148 18.3334L89.9869 17.482H89.1259V18.482ZM87.7959 18.482V17.482H86.7959V18.482H87.7959ZM87.7959 35.43V36.43H88.7959V35.43H87.7959ZM83.3879 35.43H82.3879V36.43H83.3879V35.43ZM83.3879 9.856V8.856H82.3879V9.856H83.3879ZM89.4299 9.856L90.416 9.69019L90.2758 8.856H89.4299V9.856ZM91.5959 22.738L90.6097 22.9038L90.75 23.738H91.5959V22.738ZM93.1919 22.738V23.738H94.0527L94.1807 22.8868L93.1919 22.738ZM95.1299 9.856V8.856H94.2691L94.141 9.70723L95.1299 9.856ZM100.248 9.856V35.43H102.248V9.856H100.248ZM101.248 34.43H96.8399V36.43H101.248V34.43ZM97.8399 35.43V18.482H95.8399V35.43H97.8399ZM96.8399 17.482H95.4719V19.482H96.8399V17.482ZM94.4826 18.3356L91.9746 35.2836L93.9531 35.5764L96.4611 18.6284L94.4826 18.3356ZM92.9639 34.43H91.6719V36.43H92.9639V34.43ZM92.6608 35.2814L90.1148 18.3334L88.137 18.6306L90.683 35.5786L92.6608 35.2814ZM89.1259 17.482H87.7959V19.482H89.1259V17.482ZM86.7959 18.482V35.43H88.7959V18.482H86.7959ZM87.7959 34.43H83.3879V36.43H87.7959V34.43ZM84.3879 35.43V9.856H82.3879V35.43H84.3879ZM83.3879 10.856H89.4299V8.856H83.3879V10.856ZM88.4437 10.0218L90.6097 22.9038L92.582 22.5722L90.416 9.69019L88.4437 10.0218ZM91.5959 23.738H93.1919V21.738H91.5959V23.738ZM94.1807 22.8868L96.1187 10.0048L94.141 9.70723L92.203 22.5892L94.1807 22.8868ZM95.1299 10.856H101.248V8.856H95.1299V10.856ZM117.513 31.554H118.513V30.554H117.513V31.554ZM117.513 35.43V36.43H118.513V35.43H117.513ZM107.253 35.43H106.253V36.43H107.253V35.43ZM107.253 9.78V8.78H106.253V9.78H107.253ZM117.361 9.78H118.361V8.78H117.361V9.78ZM117.361 13.77V14.77H118.361V13.77H117.361ZM112.231 13.77V12.77H111.231V13.77H112.231ZM112.231 19.926H111.231V20.926H112.231V19.926ZM116.487 19.926H117.487V18.926H116.487V19.926ZM116.487 23.764V24.764H117.487V23.764H116.487ZM112.231 23.764V22.764H111.231V23.764H112.231ZM112.231 31.554H111.231V32.554H112.231V31.554ZM116.513 31.554V35.43H118.513V31.554H116.513ZM117.513 34.43H107.253V36.43H117.513V34.43ZM108.253 35.43V9.78H106.253V35.43H108.253ZM107.253 10.78H117.361V8.78H107.253V10.78ZM116.361 9.78V13.77H118.361V9.78H116.361ZM117.361 12.77H112.231V14.77H117.361V12.77ZM111.231 13.77V19.926H113.231V13.77H111.231ZM112.231 20.926H116.487V18.926H112.231V20.926ZM115.487 19.926V23.764H117.487V19.926H115.487ZM116.487 22.764H112.231V24.764H116.487V22.764ZM111.231 23.764V31.554H113.231V23.764H111.231ZM112.231 32.554H117.513V30.554H112.231V32.554ZM131.674 9.856L132.456 9.23218L132.155 8.856H131.674V9.856ZM134.98 13.998L135.872 14.4498L136.162 13.8765L135.762 13.3742L134.98 13.998ZM126.088 31.554L125.196 31.1022L124.461 32.554H126.088V31.554ZM133.536 31.554H134.536V30.554H133.536V31.554ZM133.536 35.43V36.43H134.536V35.43H133.536ZM123.542 35.43L122.737 36.0229L123.036 36.43H123.542V35.43ZM120.464 31.25L119.575 30.792L119.291 31.3434L119.659 31.8429L120.464 31.25ZM129.47 13.77L130.359 14.228L131.11 12.77H129.47V13.77ZM122.744 13.77H121.744V14.77H122.744V13.77ZM122.744 9.856V8.856H121.744V9.856H122.744ZM130.892 10.4798L134.198 14.6218L135.762 13.3742L132.456 9.23218L130.892 10.4798ZM134.088 13.5462L125.196 31.1022L126.98 32.0058L135.872 14.4498L134.088 13.5462ZM126.088 32.554H133.536V30.554H126.088V32.554ZM132.536 31.554V35.43H134.536V31.554H132.536ZM133.536 34.43H123.542V36.43H133.536V34.43ZM124.347 34.8371L121.269 30.6571L119.659 31.8429L122.737 36.0229L124.347 34.8371ZM121.353 31.708L130.359 14.228L128.581 13.312L119.575 30.792L121.353 31.708ZM129.47 12.77H122.744V14.77H129.47V12.77ZM123.744 13.77V9.856H121.744V13.77H123.744ZM122.744 10.856H131.674V8.856H122.744V10.856ZM144.278 9.856H145.278V8.856H144.278V9.856ZM144.278 35.43V36.43H145.278V35.43H144.278ZM139.3 35.43H138.3V36.43H139.3V35.43ZM139.3 9.856V8.856H138.3V9.856H139.3ZM143.278 9.856V35.43H145.278V9.856H143.278ZM144.278 34.43H139.3V36.43H144.278V34.43ZM140.3 35.43V9.856H138.3V35.43H140.3ZM139.3 10.856H144.278V8.856H139.3V10.856ZM160.959 9.856H161.959V8.856H160.959V9.856ZM160.959 13.77V14.77H161.959V13.77H160.959ZM157.539 13.77V12.77H156.539V13.77H157.539ZM157.539 35.43V36.43H158.539V35.43H157.539ZM152.637 35.43H151.637V36.43H152.637V35.43ZM152.637 13.77H153.637V12.77H152.637V13.77ZM149.179 13.77H148.179V14.77H149.179V13.77ZM149.179 9.856V8.856H148.179V9.856H149.179ZM159.959 9.856V13.77H161.959V9.856H159.959ZM160.959 12.77H157.539V14.77H160.959V12.77ZM156.539 13.77V35.43H158.539V13.77H156.539ZM157.539 34.43H152.637V36.43H157.539V34.43ZM153.637 35.43V13.77H151.637V35.43H153.637ZM152.637 12.77H149.179V14.77H152.637V12.77ZM150.179 13.77V9.856H148.179V13.77H150.179ZM149.179 10.856H160.959V8.856H149.179V10.856ZM170.408 31.402H171.408V30.402H170.408V31.402ZM170.408 35.43V36.43H171.408V35.43H170.408ZM165.506 35.43H164.506V36.43H165.506V35.43ZM165.506 31.402V30.402H164.506V31.402H165.506ZM169.408 31.402V35.43H171.408V31.402H169.408ZM170.408 34.43H165.506V36.43H170.408V34.43ZM166.506 35.43V31.402H164.506V35.43H166.506ZM165.506 32.402H170.408V30.402H165.506V32.402ZM189.955 25.626H190.955V25.1644L190.603 24.8649L189.955 25.626ZM189.955 35.43V36.43H190.955V35.43H189.955ZM185.205 35.43H184.205V36.43H185.205V35.43ZM185.205 24.752H186.205V23.752H185.205V24.752ZM181.557 24.752V23.752H180.557V24.752H181.557ZM181.557 35.43V36.43H182.557V35.43H181.557ZM176.541 35.43H175.541V36.43H176.541V35.43ZM176.541 9.856V8.856H175.541V9.856H176.541ZM186.193 9.856L186.877 9.12715L186.589 8.856H186.193V9.856ZM189.955 13.39H190.955V12.9574L190.639 12.6612L189.955 13.39ZM189.955 19.85L190.613 20.6026L190.955 20.3038V19.85H189.955ZM186.611 22.776L185.952 22.0234L185.081 22.786L185.962 23.5371L186.611 22.776ZM181.557 20.838H180.557V21.838H181.557V20.838ZM185.205 20.838V21.838H186.205V20.838H185.205ZM185.205 13.77H186.205V12.77H185.205V13.77ZM181.557 13.77V12.77H180.557V13.77H181.557ZM188.955 25.626V35.43H190.955V25.626H188.955ZM189.955 34.43H185.205V36.43H189.955V34.43ZM186.205 35.43V24.752H184.205V35.43H186.205ZM185.205 23.752H181.557V25.752H185.205V23.752ZM180.557 24.752V35.43H182.557V24.752H180.557ZM181.557 34.43H176.541V36.43H181.557V34.43ZM177.541 35.43V9.856H175.541V35.43H177.541ZM176.541 10.856H186.193V8.856H176.541V10.856ZM185.508 10.5848L189.27 14.1188L190.639 12.6612L186.877 9.12715L185.508 10.5848ZM188.955 13.39V19.85H190.955V13.39H188.955ZM189.296 19.0974L185.952 22.0234L187.269 23.5286L190.613 20.6026L189.296 19.0974ZM185.962 23.5371L189.306 26.3871L190.603 24.8649L187.259 22.0149L185.962 23.5371ZM181.557 21.838H185.205V19.838H181.557V21.838ZM186.205 20.838V13.77H184.205V20.838H186.205ZM185.205 12.77H181.557V14.77H185.205V12.77ZM180.557 13.77V20.838H182.557V13.77H180.557ZM209.632 9.856H210.632V8.856H209.632V9.856ZM209.632 31.858L210.332 32.5725L210.632 32.2784V31.858H209.632ZM205.984 35.43V36.43H206.392L206.684 36.1445L205.984 35.43ZM199.638 35.43L198.946 36.1518L199.236 36.43H199.638V35.43ZM195.952 31.896H194.952V32.3226L195.26 32.6178L195.952 31.896ZM195.952 9.856V8.856H194.952V9.856H195.952ZM200.93 9.856H201.93V8.856H200.93V9.856ZM200.93 31.554H199.93V32.554H200.93V31.554ZM204.654 31.554V32.554H205.654V31.554H204.654ZM204.654 9.856V8.856H203.654V9.856H204.654ZM208.632 9.856V31.858H210.632V9.856H208.632ZM208.932 31.1435L205.284 34.7155L206.684 36.1445L210.332 32.5725L208.932 31.1435ZM205.984 34.43H199.638V36.43H205.984V34.43ZM200.33 34.7082L196.644 31.1742L195.26 32.6178L198.946 36.1518L200.33 34.7082ZM196.952 31.896V9.856H194.952V31.896H196.952ZM195.952 10.856H200.93V8.856H195.952V10.856ZM199.93 9.856V31.554H201.93V9.856H199.93ZM200.93 32.554H204.654V30.554H200.93V32.554ZM205.654 31.554V9.856H203.654V31.554H205.654ZM204.654 10.856H209.632V8.856H204.654V10.856Z" fill="white" mask="url(#path-1-outside-1_2005_3417)"/>
<path d="M21.9857 7.7998L30.0857 20.3998L24.5315 29.8498H36.1029L43.9714 41.9998H0L21.9857 7.7998Z" fill="#744746"/>
<path d="M32.2834 33.3952H16.5354L23.914 20.8173L21.4545 17.5715L9.77148 37.1144H34.7429L32.2834 33.3952Z" fill="white"/>
<path fill-rule="evenodd" clip-rule="evenodd" d="M21.7608 4L29.8571 20.2857L21.7608 9.8028L14.1143 19.8826L21.7608 4Z" fill="white"/>
</svg>
