<svg width="237" height="74" viewBox="0 0 237 74" fill="none" xmlns="http://www.w3.org/2000/svg">
<mask id="path-1-outside-1_2002_3418" maskUnits="userSpaceOnUse" x="77" y="8" width="159" height="29" fill="black">
<rect fill="white" x="77" y="8" width="159" height="29"/>
<path d="M88.578 31.554V35.43H78.166V9.856H83.144V31.554H88.578ZM103.385 31.554V35.43H93.1249V9.78H103.233V13.77H98.1029V19.926H102.359V23.764H98.1029V31.554H103.385ZM126.248 9.856V35.43H121.84V18.482H120.472L117.964 35.43H116.672L114.126 18.482H112.796V35.43H108.388V9.856H114.43L116.596 22.738H118.192L120.13 9.856H126.248ZM142.513 31.554V35.43H132.253V9.78H142.361V13.77H137.231V19.926H141.487V23.764H137.231V31.554H142.513ZM156.674 9.856L159.98 13.998L151.088 31.554H158.536V35.43H148.542L145.464 31.25L154.47 13.77H147.744V9.856H156.674ZM169.278 9.856V35.43H164.3V9.856H169.278ZM185.959 9.856V13.77H182.539V35.43H177.637V13.77H174.179V9.856H185.959ZM195.408 31.402V35.43H190.506V31.402H195.408ZM214.955 25.626V35.43H210.205V24.752H206.557V35.43H201.541V9.856H211.193L214.955 13.39V19.85L211.611 22.776L214.955 25.626ZM206.557 20.838H210.205V13.77H206.557V20.838ZM234.632 9.856V31.858L230.984 35.43H224.638L220.952 31.896V9.856H225.93V31.554H229.654V9.856H234.632Z"/>
</mask>
<path d="M88.578 31.554V35.43H78.166V9.856H83.144V31.554H88.578ZM103.385 31.554V35.43H93.1249V9.78H103.233V13.77H98.1029V19.926H102.359V23.764H98.1029V31.554H103.385ZM126.248 9.856V35.43H121.84V18.482H120.472L117.964 35.43H116.672L114.126 18.482H112.796V35.43H108.388V9.856H114.43L116.596 22.738H118.192L120.13 9.856H126.248ZM142.513 31.554V35.43H132.253V9.78H142.361V13.77H137.231V19.926H141.487V23.764H137.231V31.554H142.513ZM156.674 9.856L159.98 13.998L151.088 31.554H158.536V35.43H148.542L145.464 31.25L154.47 13.77H147.744V9.856H156.674ZM169.278 9.856V35.43H164.3V9.856H169.278ZM185.959 9.856V13.77H182.539V35.43H177.637V13.77H174.179V9.856H185.959ZM195.408 31.402V35.43H190.506V31.402H195.408ZM214.955 25.626V35.43H210.205V24.752H206.557V35.43H201.541V9.856H211.193L214.955 13.39V19.85L211.611 22.776L214.955 25.626ZM206.557 20.838H210.205V13.77H206.557V20.838ZM234.632 9.856V31.858L230.984 35.43H224.638L220.952 31.896V9.856H225.93V31.554H229.654V9.856H234.632Z" fill="#744746"/>
<path d="M88.578 31.554H89.578V30.554H88.578V31.554ZM88.578 35.43V36.43H89.578V35.43H88.578ZM78.166 35.43H77.166V36.43H78.166V35.43ZM78.166 9.856V8.856H77.166V9.856H78.166ZM83.144 9.856H84.144V8.856H83.144V9.856ZM83.144 31.554H82.144V32.554H83.144V31.554ZM87.578 31.554V35.43H89.578V31.554H87.578ZM88.578 34.43H78.166V36.43H88.578V34.43ZM79.166 35.43V9.856H77.166V35.43H79.166ZM78.166 10.856H83.144V8.856H78.166V10.856ZM82.144 9.856V31.554H84.144V9.856H82.144ZM83.144 32.554H88.578V30.554H83.144V32.554ZM103.385 31.554H104.385V30.554H103.385V31.554ZM103.385 35.43V36.43H104.385V35.43H103.385ZM93.1249 35.43H92.1249V36.43H93.1249V35.43ZM93.1249 9.78V8.78H92.1249V9.78H93.1249ZM103.233 9.78H104.233V8.78H103.233V9.78ZM103.233 13.77V14.77H104.233V13.77H103.233ZM98.1029 13.77V12.77H97.1029V13.77H98.1029ZM98.1029 19.926H97.1029V20.926H98.1029V19.926ZM102.359 19.926H103.359V18.926H102.359V19.926ZM102.359 23.764V24.764H103.359V23.764H102.359ZM98.1029 23.764V22.764H97.1029V23.764H98.1029ZM98.1029 31.554H97.1029V32.554H98.1029V31.554ZM102.385 31.554V35.43H104.385V31.554H102.385ZM103.385 34.43H93.1249V36.43H103.385V34.43ZM94.1249 35.43V9.78H92.1249V35.43H94.1249ZM93.1249 10.78H103.233V8.78H93.1249V10.78ZM102.233 9.78V13.77H104.233V9.78H102.233ZM103.233 12.77H98.1029V14.77H103.233V12.77ZM97.1029 13.77V19.926H99.1029V13.77H97.1029ZM98.1029 20.926H102.359V18.926H98.1029V20.926ZM101.359 19.926V23.764H103.359V19.926H101.359ZM102.359 22.764H98.1029V24.764H102.359V22.764ZM97.1029 23.764V31.554H99.1029V23.764H97.1029ZM98.1029 32.554H103.385V30.554H98.1029V32.554ZM126.248 9.856H127.248V8.856H126.248V9.856ZM126.248 35.43V36.43H127.248V35.43H126.248ZM121.84 35.43H120.84V36.43H121.84V35.43ZM121.84 18.482H122.84V17.482H121.84V18.482ZM120.472 18.482V17.482H119.609L119.483 18.3356L120.472 18.482ZM117.964 35.43V36.43H118.827L118.953 35.5764L117.964 35.43ZM116.672 35.43L115.683 35.5786L115.811 36.43H116.672V35.43ZM114.126 18.482L115.115 18.3334L114.987 17.482H114.126V18.482ZM112.796 18.482V17.482H111.796V18.482H112.796ZM112.796 35.43V36.43H113.796V35.43H112.796ZM108.388 35.43H107.388V36.43H108.388V35.43ZM108.388 9.856V8.856H107.388V9.856H108.388ZM114.43 9.856L115.416 9.69019L115.276 8.856H114.43V9.856ZM116.596 22.738L115.61 22.9038L115.75 23.738H116.596V22.738ZM118.192 22.738V23.738H119.053L119.181 22.8868L118.192 22.738ZM120.13 9.856V8.856H119.269L119.141 9.70723L120.13 9.856ZM125.248 9.856V35.43H127.248V9.856H125.248ZM126.248 34.43H121.84V36.43H126.248V34.43ZM122.84 35.43V18.482H120.84V35.43H122.84ZM121.84 17.482H120.472V19.482H121.84V17.482ZM119.483 18.3356L116.975 35.2836L118.953 35.5764L121.461 18.6284L119.483 18.3356ZM117.964 34.43H116.672V36.43H117.964V34.43ZM117.661 35.2814L115.115 18.3334L113.137 18.6306L115.683 35.5786L117.661 35.2814ZM114.126 17.482H112.796V19.482H114.126V17.482ZM111.796 18.482V35.43H113.796V18.482H111.796ZM112.796 34.43H108.388V36.43H112.796V34.43ZM109.388 35.43V9.856H107.388V35.43H109.388ZM108.388 10.856H114.43V8.856H108.388V10.856ZM113.444 10.0218L115.61 22.9038L117.582 22.5722L115.416 9.69019L113.444 10.0218ZM116.596 23.738H118.192V21.738H116.596V23.738ZM119.181 22.8868L121.119 10.0048L119.141 9.70723L117.203 22.5892L119.181 22.8868ZM120.13 10.856H126.248V8.856H120.13V10.856ZM142.513 31.554H143.513V30.554H142.513V31.554ZM142.513 35.43V36.43H143.513V35.43H142.513ZM132.253 35.43H131.253V36.43H132.253V35.43ZM132.253 9.78V8.78H131.253V9.78H132.253ZM142.361 9.78H143.361V8.78H142.361V9.78ZM142.361 13.77V14.77H143.361V13.77H142.361ZM137.231 13.77V12.77H136.231V13.77H137.231ZM137.231 19.926H136.231V20.926H137.231V19.926ZM141.487 19.926H142.487V18.926H141.487V19.926ZM141.487 23.764V24.764H142.487V23.764H141.487ZM137.231 23.764V22.764H136.231V23.764H137.231ZM137.231 31.554H136.231V32.554H137.231V31.554ZM141.513 31.554V35.43H143.513V31.554H141.513ZM142.513 34.43H132.253V36.43H142.513V34.43ZM133.253 35.43V9.78H131.253V35.43H133.253ZM132.253 10.78H142.361V8.78H132.253V10.78ZM141.361 9.78V13.77H143.361V9.78H141.361ZM142.361 12.77H137.231V14.77H142.361V12.77ZM136.231 13.77V19.926H138.231V13.77H136.231ZM137.231 20.926H141.487V18.926H137.231V20.926ZM140.487 19.926V23.764H142.487V19.926H140.487ZM141.487 22.764H137.231V24.764H141.487V22.764ZM136.231 23.764V31.554H138.231V23.764H136.231ZM137.231 32.554H142.513V30.554H137.231V32.554ZM156.674 9.856L157.456 9.23218L157.155 8.856H156.674V9.856ZM159.98 13.998L160.872 14.4498L161.162 13.8765L160.762 13.3742L159.98 13.998ZM151.088 31.554L150.196 31.1022L149.461 32.554H151.088V31.554ZM158.536 31.554H159.536V30.554H158.536V31.554ZM158.536 35.43V36.43H159.536V35.43H158.536ZM148.542 35.43L147.737 36.0229L148.036 36.43H148.542V35.43ZM145.464 31.25L144.575 30.792L144.291 31.3434L144.659 31.8429L145.464 31.25ZM154.47 13.77L155.359 14.228L156.11 12.77H154.47V13.77ZM147.744 13.77H146.744V14.77H147.744V13.77ZM147.744 9.856V8.856H146.744V9.856H147.744ZM155.892 10.4798L159.198 14.6218L160.762 13.3742L157.456 9.23218L155.892 10.4798ZM159.088 13.5462L150.196 31.1022L151.98 32.0058L160.872 14.4498L159.088 13.5462ZM151.088 32.554H158.536V30.554H151.088V32.554ZM157.536 31.554V35.43H159.536V31.554H157.536ZM158.536 34.43H148.542V36.43H158.536V34.43ZM149.347 34.8371L146.269 30.6571L144.659 31.8429L147.737 36.0229L149.347 34.8371ZM146.353 31.708L155.359 14.228L153.581 13.312L144.575 30.792L146.353 31.708ZM154.47 12.77H147.744V14.77H154.47V12.77ZM148.744 13.77V9.856H146.744V13.77H148.744ZM147.744 10.856H156.674V8.856H147.744V10.856ZM169.278 9.856H170.278V8.856H169.278V9.856ZM169.278 35.43V36.43H170.278V35.43H169.278ZM164.3 35.43H163.3V36.43H164.3V35.43ZM164.3 9.856V8.856H163.3V9.856H164.3ZM168.278 9.856V35.43H170.278V9.856H168.278ZM169.278 34.43H164.3V36.43H169.278V34.43ZM165.3 35.43V9.856H163.3V35.43H165.3ZM164.3 10.856H169.278V8.856H164.3V10.856ZM185.959 9.856H186.959V8.856H185.959V9.856ZM185.959 13.77V14.77H186.959V13.77H185.959ZM182.539 13.77V12.77H181.539V13.77H182.539ZM182.539 35.43V36.43H183.539V35.43H182.539ZM177.637 35.43H176.637V36.43H177.637V35.43ZM177.637 13.77H178.637V12.77H177.637V13.77ZM174.179 13.77H173.179V14.77H174.179V13.77ZM174.179 9.856V8.856H173.179V9.856H174.179ZM184.959 9.856V13.77H186.959V9.856H184.959ZM185.959 12.77H182.539V14.77H185.959V12.77ZM181.539 13.77V35.43H183.539V13.77H181.539ZM182.539 34.43H177.637V36.43H182.539V34.43ZM178.637 35.43V13.77H176.637V35.43H178.637ZM177.637 12.77H174.179V14.77H177.637V12.77ZM175.179 13.77V9.856H173.179V13.77H175.179ZM174.179 10.856H185.959V8.856H174.179V10.856ZM195.408 31.402H196.408V30.402H195.408V31.402ZM195.408 35.43V36.43H196.408V35.43H195.408ZM190.506 35.43H189.506V36.43H190.506V35.43ZM190.506 31.402V30.402H189.506V31.402H190.506ZM194.408 31.402V35.43H196.408V31.402H194.408ZM195.408 34.43H190.506V36.43H195.408V34.43ZM191.506 35.43V31.402H189.506V35.43H191.506ZM190.506 32.402H195.408V30.402H190.506V32.402ZM214.955 25.626H215.955V25.1644L215.603 24.8649L214.955 25.626ZM214.955 35.43V36.43H215.955V35.43H214.955ZM210.205 35.43H209.205V36.43H210.205V35.43ZM210.205 24.752H211.205V23.752H210.205V24.752ZM206.557 24.752V23.752H205.557V24.752H206.557ZM206.557 35.43V36.43H207.557V35.43H206.557ZM201.541 35.43H200.541V36.43H201.541V35.43ZM201.541 9.856V8.856H200.541V9.856H201.541ZM211.193 9.856L211.877 9.12715L211.589 8.856H211.193V9.856ZM214.955 13.39H215.955V12.9574L215.639 12.6612L214.955 13.39ZM214.955 19.85L215.613 20.6026L215.955 20.3038V19.85H214.955ZM211.611 22.776L210.952 22.0234L210.081 22.786L210.962 23.5371L211.611 22.776ZM206.557 20.838H205.557V21.838H206.557V20.838ZM210.205 20.838V21.838H211.205V20.838H210.205ZM210.205 13.77H211.205V12.77H210.205V13.77ZM206.557 13.77V12.77H205.557V13.77H206.557ZM213.955 25.626V35.43H215.955V25.626H213.955ZM214.955 34.43H210.205V36.43H214.955V34.43ZM211.205 35.43V24.752H209.205V35.43H211.205ZM210.205 23.752H206.557V25.752H210.205V23.752ZM205.557 24.752V35.43H207.557V24.752H205.557ZM206.557 34.43H201.541V36.43H206.557V34.43ZM202.541 35.43V9.856H200.541V35.43H202.541ZM201.541 10.856H211.193V8.856H201.541V10.856ZM210.508 10.5848L214.27 14.1188L215.639 12.6612L211.877 9.12715L210.508 10.5848ZM213.955 13.39V19.85H215.955V13.39H213.955ZM214.296 19.0974L210.952 22.0234L212.269 23.5286L215.613 20.6026L214.296 19.0974ZM210.962 23.5371L214.306 26.3871L215.603 24.8649L212.259 22.0149L210.962 23.5371ZM206.557 21.838H210.205V19.838H206.557V21.838ZM211.205 20.838V13.77H209.205V20.838H211.205ZM210.205 12.77H206.557V14.77H210.205V12.77ZM205.557 13.77V20.838H207.557V13.77H205.557ZM234.632 9.856H235.632V8.856H234.632V9.856ZM234.632 31.858L235.332 32.5725L235.632 32.2784V31.858H234.632ZM230.984 35.43V36.43H231.392L231.684 36.1445L230.984 35.43ZM224.638 35.43L223.946 36.1518L224.236 36.43H224.638V35.43ZM220.952 31.896H219.952V32.3226L220.26 32.6178L220.952 31.896ZM220.952 9.856V8.856H219.952V9.856H220.952ZM225.93 9.856H226.93V8.856H225.93V9.856ZM225.93 31.554H224.93V32.554H225.93V31.554ZM229.654 31.554V32.554H230.654V31.554H229.654ZM229.654 9.856V8.856H228.654V9.856H229.654ZM233.632 9.856V31.858H235.632V9.856H233.632ZM233.932 31.1435L230.284 34.7155L231.684 36.1445L235.332 32.5725L233.932 31.1435ZM230.984 34.43H224.638V36.43H230.984V34.43ZM225.33 34.7082L221.644 31.1742L220.26 32.6178L223.946 36.1518L225.33 34.7082ZM221.952 31.896V9.856H219.952V31.896H221.952ZM220.952 10.856H225.93V8.856H220.952V10.856ZM224.93 9.856V31.554H226.93V9.856H224.93ZM225.93 32.554H229.654V30.554H225.93V32.554ZM230.654 31.554V9.856H228.654V31.554H230.654ZM229.654 10.856H234.632V8.856H229.654V10.856Z" fill="white" mask="url(#path-1-outside-1_2002_3418)"/>
<path d="M34.7143 18L47.5038 37.8947L38.7339 52.8158H57.0045L69.4286 72H0L34.7143 18Z" fill="#744746"/>
<path d="M50.9738 58.4132H26.1085L37.7591 38.5534L33.8755 33.4285L15.4287 64.2856H54.8573L50.9738 58.4132Z" fill="white"/>
<path fill-rule="evenodd" clip-rule="evenodd" d="M34.3596 12L47.1433 37.7143L34.3596 21.1623L22.2861 37.0777L34.3596 12Z" fill="white"/>
<path d="M77.12 56V44.48H79.048V49.824L83.648 44.48H86.016L81.064 50.128L86.352 56H83.904L79.048 50.624V56H77.12ZM88.9994 56L90.5194 52.896L86.5434 44.48H88.7194L91.5274 50.864L94.4234 44.48H96.4794L91.0554 56H88.9994ZM97.6669 56V44.48H107.003V56H105.075V46.288H99.5949V56H97.6669ZM118.493 56H116.541V47.88L111.197 56H109.245V44.48H111.197V52.6L116.541 44.48H118.493V56ZM123.497 56V46.288H119.769V44.48H129.153V46.288H125.425V56H123.497ZM130.417 56V44.48H132.345V48.504H135.177C135.283 48.504 135.427 48.5093 135.609 48.52C135.79 48.5253 135.955 48.5413 136.105 48.568C136.766 48.6693 137.313 48.8907 137.745 49.232C138.182 49.5733 138.505 50.0053 138.713 50.528C138.926 51.0453 139.033 51.6187 139.033 52.248C139.033 52.8827 138.926 53.4613 138.713 53.984C138.505 54.5013 138.182 54.9307 137.745 55.272C137.313 55.6133 136.766 55.8347 136.105 55.936C135.955 55.9573 135.79 55.9733 135.609 55.984C135.433 55.9947 135.289 56 135.177 56H130.417ZM132.345 54.192H135.097C135.209 54.192 135.329 54.1867 135.457 54.176C135.59 54.1653 135.715 54.1467 135.833 54.12C136.147 54.04 136.395 53.8987 136.577 53.696C136.763 53.4933 136.894 53.264 136.969 53.008C137.049 52.7467 137.089 52.4933 137.089 52.248C137.089 52.0027 137.049 51.752 136.969 51.496C136.894 51.24 136.763 51.0107 136.577 50.808C136.395 50.6053 136.147 50.464 135.833 50.384C135.715 50.352 135.59 50.3307 135.457 50.32C135.329 50.3093 135.209 50.304 135.097 50.304H132.345V54.192ZM143.195 56V54.384C143.451 54.4 143.667 54.3813 143.843 54.328C144.019 54.2693 144.166 54.16 144.283 54C144.406 53.8347 144.512 53.6027 144.603 53.304C144.694 53 144.782 52.6187 144.867 52.16C144.99 51.504 145.091 50.8213 145.171 50.112C145.256 49.3973 145.328 48.696 145.387 48.008C145.446 47.3147 145.491 46.664 145.523 46.056C145.555 45.448 145.582 44.9227 145.603 44.48H153.315V56H151.387V46.288H147.387C147.36 46.6453 147.328 47.0773 147.291 47.584C147.259 48.0853 147.214 48.6293 147.155 49.216C147.102 49.8027 147.032 50.4107 146.947 51.04C146.867 51.6693 146.768 52.288 146.651 52.896C146.544 53.4507 146.416 53.9493 146.267 54.392C146.118 54.8293 145.918 55.192 145.667 55.48C145.422 55.7627 145.099 55.952 144.699 56.048C144.304 56.144 143.803 56.128 143.195 56ZM155.558 56V44.48H162.998V46.288H157.486V49.128H162.038V50.936H157.486V54.192H162.998V56H155.558ZM164.917 56V44.48H166.653L170.637 52.64L174.621 44.48H176.357V56H174.557V48.616L171.021 56H170.253L166.725 48.616V56H164.917ZM178.604 56V44.48H186.044V46.288H180.532V49.128H185.084V50.936H180.532V54.192H186.044V56H178.604ZM191.559 56.24C190.749 56.24 190.039 56.1227 189.431 55.888C188.829 55.648 188.322 55.3413 187.911 54.968C187.506 54.5893 187.194 54.192 186.975 53.776L188.623 52.656C188.751 52.9493 188.938 53.232 189.183 53.504C189.429 53.7707 189.751 53.992 190.151 54.168C190.551 54.3387 191.047 54.424 191.639 54.424C192.21 54.424 192.677 54.3387 193.039 54.168C193.402 53.9973 193.669 53.7733 193.839 53.496C194.01 53.2187 194.095 52.9173 194.095 52.592C194.095 52.1867 193.983 51.8747 193.759 51.656C193.535 51.432 193.242 51.2773 192.879 51.192C192.517 51.1013 192.13 51.0507 191.719 51.04C191.346 51.0293 191.077 51.0213 190.911 51.016C190.746 51.0107 190.637 51.008 190.583 51.008C190.53 51.008 190.479 51.008 190.431 51.008V49.184C190.49 49.184 190.589 49.184 190.727 49.184C190.871 49.184 191.018 49.184 191.167 49.184C191.322 49.1787 191.447 49.1733 191.543 49.168C192.151 49.1413 192.65 49 193.039 48.744C193.434 48.488 193.631 48.1093 193.631 47.608C193.631 47.1227 193.447 46.7413 193.079 46.464C192.717 46.1867 192.234 46.048 191.631 46.048C191.066 46.048 190.567 46.1733 190.135 46.424C189.709 46.6747 189.386 46.9707 189.167 47.312L187.815 45.936C188.205 45.4613 188.733 45.0613 189.399 44.736C190.071 44.4053 190.834 44.24 191.687 44.24C192.189 44.24 192.677 44.3067 193.151 44.44C193.626 44.568 194.053 44.7653 194.431 45.032C194.81 45.2987 195.111 45.64 195.335 46.056C195.559 46.472 195.671 46.968 195.671 47.544C195.671 48.072 195.57 48.56 195.367 49.008C195.17 49.4507 194.893 49.8133 194.535 50.096C195.042 50.2987 195.434 50.608 195.711 51.024C195.994 51.44 196.135 51.9653 196.135 52.6C196.135 53.3467 195.933 53.992 195.527 54.536C195.122 55.08 194.573 55.5013 193.879 55.8C193.191 56.0933 192.418 56.24 191.559 56.24ZM207.118 56H205.166V47.88L199.822 56H197.87V44.48H199.822V52.6L205.166 44.48H207.118V56ZM212.122 56V46.288H208.394V44.48H217.778V46.288H214.05V56H212.122ZM78.64 72L80.16 68.896L76.184 60.48H78.36L81.168 66.864L84.064 60.48H86.12L80.696 72H78.64ZM89.87 72V60.48H99.206V72H97.278V62.288H91.798V72H89.87ZM101.448 72V60.48H106.208C106.32 60.48 106.464 60.4853 106.64 60.496C106.816 60.5013 106.979 60.5173 107.128 60.544C107.795 60.6453 108.344 60.8667 108.776 61.208C109.213 61.5493 109.536 61.9813 109.744 62.504C109.957 63.0213 110.064 63.5973 110.064 64.232C110.064 64.8613 109.957 65.4373 109.744 65.96C109.531 66.4773 109.205 66.9067 108.768 67.248C108.336 67.5893 107.789 67.8107 107.128 67.912C106.979 67.9333 106.813 67.9493 106.632 67.96C106.456 67.9707 106.315 67.976 106.208 67.976H103.376V72H101.448ZM103.376 66.176H106.128C106.235 66.176 106.355 66.1707 106.488 66.16C106.621 66.1493 106.744 66.128 106.856 66.096C107.176 66.016 107.427 65.8747 107.608 65.672C107.795 65.4693 107.925 65.24 108 64.984C108.08 64.728 108.12 64.4773 108.12 64.232C108.12 63.9867 108.08 63.736 108 63.48C107.925 63.2187 107.795 62.9867 107.608 62.784C107.427 62.5813 107.176 62.44 106.856 62.36C106.744 62.328 106.621 62.3093 106.488 62.304C106.355 62.2933 106.235 62.288 106.128 62.288H103.376V66.176ZM116.539 72.24C115.387 72.24 114.4 71.9893 113.579 71.488C112.758 70.9813 112.126 70.2773 111.683 69.376C111.246 68.4747 111.027 67.4293 111.027 66.24C111.027 65.0507 111.246 64.0053 111.683 63.104C112.126 62.2027 112.758 61.5013 113.579 61C114.4 60.4933 115.387 60.24 116.539 60.24C117.691 60.24 118.678 60.4933 119.499 61C120.326 61.5013 120.958 62.2027 121.395 63.104C121.838 64.0053 122.059 65.0507 122.059 66.24C122.059 67.4293 121.838 68.4747 121.395 69.376C120.958 70.2773 120.326 70.9813 119.499 71.488C118.678 71.9893 117.691 72.24 116.539 72.24ZM116.539 70.424C117.312 70.4293 117.955 70.2587 118.467 69.912C118.984 69.5653 119.371 69.0773 119.627 68.448C119.888 67.8187 120.019 67.0827 120.019 66.24C120.019 65.3973 119.888 64.6667 119.627 64.048C119.371 63.424 118.984 62.9387 118.467 62.592C117.955 62.2453 117.312 62.0667 116.539 62.056C115.766 62.0507 115.123 62.2213 114.611 62.568C114.099 62.9147 113.712 63.4027 113.451 64.032C113.195 64.6613 113.067 65.3973 113.067 66.24C113.067 67.0827 113.195 67.816 113.451 68.44C113.707 69.0587 114.091 69.5413 114.603 69.888C115.12 70.2347 115.766 70.4133 116.539 70.424ZM132.899 72H130.947V63.88L125.603 72H123.651V60.48H125.603V68.6L130.947 60.48H132.899V72ZM139.216 72.24C138.405 72.24 137.696 72.1227 137.088 71.888C136.485 71.648 135.978 71.3413 135.568 70.968C135.162 70.5893 134.85 70.192 134.632 69.776L136.28 68.656C136.408 68.9493 136.594 69.232 136.84 69.504C137.085 69.7707 137.408 69.992 137.808 70.168C138.208 70.3387 138.704 70.424 139.296 70.424C139.866 70.424 140.333 70.3387 140.696 70.168C141.058 69.9973 141.325 69.7733 141.496 69.496C141.666 69.2187 141.752 68.9173 141.752 68.592C141.752 68.1867 141.64 67.8747 141.416 67.656C141.192 67.432 140.898 67.2773 140.536 67.192C140.173 67.1013 139.786 67.0507 139.376 67.04C139.002 67.0293 138.733 67.0213 138.568 67.016C138.402 67.0107 138.293 67.008 138.24 67.008C138.186 67.008 138.136 67.008 138.088 67.008V65.184C138.146 65.184 138.245 65.184 138.384 65.184C138.528 65.184 138.674 65.184 138.824 65.184C138.978 65.1787 139.104 65.1733 139.2 65.168C139.808 65.1413 140.306 65 140.696 64.744C141.09 64.488 141.288 64.1093 141.288 63.608C141.288 63.1227 141.104 62.7413 140.736 62.464C140.373 62.1867 139.89 62.048 139.288 62.048C138.722 62.048 138.224 62.1733 137.792 62.424C137.365 62.6747 137.042 62.9707 136.824 63.312L135.472 61.936C135.861 61.4613 136.389 61.0613 137.056 60.736C137.728 60.4053 138.49 60.24 139.344 60.24C139.845 60.24 140.333 60.3067 140.808 60.44C141.282 60.568 141.709 60.7653 142.088 61.032C142.466 61.2987 142.768 61.64 142.992 62.056C143.216 62.472 143.328 62.968 143.328 63.544C143.328 64.072 143.226 64.56 143.024 65.008C142.826 65.4507 142.549 65.8133 142.192 66.096C142.698 66.2987 143.09 66.608 143.368 67.024C143.65 67.44 143.792 67.9653 143.792 68.6C143.792 69.3467 143.589 69.992 143.184 70.536C142.778 71.08 142.229 71.5013 141.536 71.8C140.848 72.0933 140.074 72.24 139.216 72.24ZM145.526 72V60.48H150.094C150.873 60.48 151.51 60.6373 152.006 60.952C152.508 61.2613 152.878 61.6587 153.118 62.144C153.364 62.6293 153.486 63.1307 153.486 63.648C153.486 64.2827 153.334 64.8213 153.03 65.264C152.732 65.7067 152.324 66.0053 151.806 66.16V65.76C152.532 65.9253 153.081 66.2693 153.454 66.792C153.833 67.3147 154.022 67.9093 154.022 68.576C154.022 69.2587 153.892 69.856 153.63 70.368C153.369 70.88 152.98 71.28 152.462 71.568C151.95 71.856 151.316 72 150.558 72H145.526ZM147.478 70.184H150.318C150.654 70.184 150.956 70.1173 151.222 69.984C151.489 69.8453 151.697 69.6533 151.846 69.408C152.001 69.1573 152.078 68.8613 152.078 68.52C152.078 68.2107 152.012 67.9333 151.878 67.688C151.745 67.4427 151.55 67.248 151.294 67.104C151.038 66.9547 150.732 66.88 150.374 66.88H147.478V70.184ZM147.478 65.08H150.07C150.348 65.08 150.596 65.0267 150.814 64.92C151.033 64.8133 151.206 64.656 151.334 64.448C151.462 64.24 151.526 63.984 151.526 63.68C151.526 63.28 151.398 62.9467 151.142 62.68C150.886 62.4133 150.529 62.28 150.07 62.28H147.478V65.08ZM160.492 72.24C159.34 72.24 158.353 71.9893 157.532 71.488C156.711 70.9813 156.079 70.2773 155.636 69.376C155.199 68.4747 154.98 67.4293 154.98 66.24C154.98 65.0507 155.199 64.0053 155.636 63.104C156.079 62.2027 156.711 61.5013 157.532 61C158.353 60.4933 159.34 60.24 160.492 60.24C161.644 60.24 162.631 60.4933 163.452 61C164.279 61.5013 164.911 62.2027 165.348 63.104C165.791 64.0053 166.012 65.0507 166.012 66.24C166.012 67.4293 165.791 68.4747 165.348 69.376C164.911 70.2773 164.279 70.9813 163.452 71.488C162.631 71.9893 161.644 72.24 160.492 72.24ZM160.492 70.424C161.265 70.4293 161.908 70.2587 162.42 69.912C162.937 69.5653 163.324 69.0773 163.58 68.448C163.841 67.8187 163.972 67.0827 163.972 66.24C163.972 65.3973 163.841 64.6667 163.58 64.048C163.324 63.424 162.937 62.9387 162.42 62.592C161.908 62.2453 161.265 62.0667 160.492 62.056C159.719 62.0507 159.076 62.2213 158.564 62.568C158.052 62.9147 157.665 63.4027 157.404 64.032C157.148 64.6613 157.02 65.3973 157.02 66.24C157.02 67.0827 157.148 67.816 157.404 68.44C157.66 69.0587 158.044 69.5413 158.556 69.888C159.073 70.2347 159.719 70.4133 160.492 70.424ZM166.676 73.92V70.192C167.049 70.192 167.361 70.0987 167.612 69.912C167.863 69.7253 168.063 69.4667 168.212 69.136C168.367 68.8053 168.487 68.4213 168.572 67.984C168.657 67.5413 168.724 67.072 168.772 66.576C168.831 65.92 168.881 65.2773 168.924 64.648C168.967 64.0133 169.007 63.3573 169.044 62.68C169.087 61.9973 169.135 61.2587 169.188 60.464L176.7 60.48V70.192H177.564V73.92H175.644V72H168.604V73.92H166.676ZM169.676 70.192H174.772V62.288L170.948 62.272C170.911 62.832 170.879 63.3547 170.852 63.84C170.831 64.32 170.801 64.808 170.764 65.304C170.732 65.8 170.687 66.3413 170.628 66.928C170.575 67.504 170.516 67.984 170.452 68.368C170.393 68.752 170.305 69.0853 170.188 69.368C170.071 69.6453 169.9 69.92 169.676 70.192ZM188.571 72H186.619V63.88L181.275 72H179.323V60.48H181.275V68.6L186.619 60.48H188.571V72ZM193.576 72V62.288H189.848V60.48H199.232V62.288H195.504V72H193.576ZM200.511 72V60.48H207.951V62.288H202.439V65.128H206.991V66.936H202.439V70.192H207.951V72H200.511ZM209.07 72V70.384C209.326 70.4 209.542 70.3813 209.718 70.328C209.894 70.2693 210.041 70.16 210.158 70C210.281 69.8347 210.387 69.6027 210.478 69.304C210.569 69 210.657 68.6187 210.742 68.16C210.865 67.504 210.966 66.8213 211.046 66.112C211.131 65.3973 211.203 64.696 211.262 64.008C211.321 63.3147 211.366 62.664 211.398 62.056C211.43 61.448 211.457 60.9227 211.478 60.48H219.19V72H217.262V62.288H213.262C213.235 62.6453 213.203 63.0773 213.166 63.584C213.134 64.0853 213.089 64.6293 213.03 65.216C212.977 65.8027 212.907 66.4107 212.822 67.04C212.742 67.6693 212.643 68.288 212.526 68.896C212.419 69.4507 212.291 69.9493 212.142 70.392C211.993 70.8293 211.793 71.192 211.542 71.48C211.297 71.7627 210.974 71.952 210.574 72.048C210.179 72.144 209.678 72.128 209.07 72ZM229.753 72H227.833V67.976H224.857L224.033 67.904C223.051 67.744 222.323 67.328 221.849 66.656C221.374 65.9787 221.137 65.1707 221.137 64.232C221.137 63.5973 221.243 63.0213 221.457 62.504C221.67 61.9813 221.993 61.5493 222.424 61.208C222.857 60.8667 223.406 60.6453 224.073 60.544C224.227 60.5173 224.39 60.5013 224.561 60.496C224.737 60.4853 224.881 60.48 224.993 60.48H229.753V72ZM223.137 72H220.953L223.449 66.88L225.409 67.312L223.137 72ZM227.833 66.176V62.288H225.073C224.966 62.288 224.846 62.2933 224.713 62.304C224.579 62.3093 224.457 62.328 224.345 62.36C224.025 62.44 223.771 62.5813 223.585 62.784C223.403 62.9867 223.275 63.2187 223.201 63.48C223.126 63.736 223.089 63.9867 223.089 64.232C223.089 64.4773 223.126 64.728 223.201 64.984C223.275 65.24 223.403 65.4693 223.585 65.672C223.771 65.8747 224.025 66.016 224.345 66.096C224.457 66.128 224.579 66.1493 224.713 66.16C224.846 66.1707 224.966 66.176 225.073 66.176H227.833Z" fill="#D6D6D6"/>
</svg>
